<svg class="w-auto h-6 md:h-10" xmlns="http://www.w3.org/2000/svg" viewBox="0 0 56.965 25.467" width="569" height="254"><g><g transform="translate(28.416 14.918)"><path d="M66.549 33.4v5.987a2.055 2.055 0 0 1-.179.8 1.385 1.385 0 0 1-.447.536 1.3 1.3 0 0 1-.849.268 1.34 1.34 0 0 1-.849-.268 1.385 1.385 0 0 1-.447-.536 2.055 2.055 0 0 1-.179-.8V33.4h1.072v5.987a.67.67 0 0 0 .134.491l.223.089a.313.313 0 0 0 .313-.268.715.715 0 0 0 .045-.268V33.4z" fill="#5d3fbf" transform="translate(-63.6 -33.395)"></path><path d="M77.146 35.4a2.457 2.457 0 0 0-.089-.715c-.089-.223-.179-.357-.357-.357s-.357.313-.357.76a1.7 1.7 0 0 0 .268.8l.581.894a11.573 11.573 0 0 1 .715 1.162 2.591 2.591 0 0 1 .313 1.162 2.368 2.368 0 0 1-.313 1.3 1.608 1.608 0 0 1-2.547-.089 3.217 3.217 0 0 1-.268-1.519l1.072-.089a2.815 2.815 0 0 0 .089.849c.089.223.179.4.447.4s.447-.357.447-.8a1.876 1.876 0 0 0-.268-.8l-.268-.447-.711-1.032a4.289 4.289 0 0 1-.536-1.162 2.011 2.011 0 0 1-.089-.581 2.1 2.1 0 0 1 .313-1.162 1.34 1.34 0 0 1 1.117-.581 1.3 1.3 0 0 1 1.251.67 2.9 2.9 0 0 1 .268 1.34z" fill="#5d3fbf" transform="translate(-69.953 -33.389)"></path></g><path d="M86.562 13.493H53.5V0h33.062zm-31.5-1.564h29.981V1.564H55.064z" fill="#5d3fbf" transform="translate(-29.597)"></path><path d="M25.467 25.467H0V0h25.467z" fill="#5d3fbf"></path><path d="M70.835 40.238H53.5V26.7h17.335zm-15.771-1.564h14.208v-10.41H55.064z" fill="#5d3fbf" transform="translate(-29.597 -14.771)"></path><g transform="translate(28.46 2.993)"><path d="M63.7 6.7h2.5v1.162h-1.383v1.966h1.028v1.206h-1.028v2.055h1.43v1.117H63.7z" fill="#5d3fbf" transform="translate(-63.7 -6.7)"></path><path d="M76.923 6.7H78l-1.162 7.506h-1.121L74.6 6.7h1.072l.536 4.11v.313h.045v-.313z" fill="#5d3fbf" transform="translate(-69.73 -6.7)"></path><path d="M87.9 6.7h2.5v1.162h-1.43v1.966H90v1.206h-1.028v2.055H90.4v1.117h-2.5z" fill="#5d3fbf" transform="translate(-77.088 -6.7)"></path><path d="M100.562 10.319l-.089-.357h-.045v4.244H99.4V6.7h.983l1.072 3.887.089.357h.045V6.7h1.028v7.506h-.983z" fill="#5d3fbf" transform="translate(-83.45 -6.7)"></path><path d="M112.2 7.862V6.7h3.172v1.162h-1.028v6.344h-1.117V7.862z" fill="#5d3fbf" transform="translate(-90.531 -6.7)"></path></g></g><g transform="translate(7.551 6.523)"><path fill="#ffc200" d="M0 0H10.008V2.895H0z"></path><path d="M23.557 28.1H16.9v-2.9h7.193z" fill="#fff" transform="translate(-16.9 -20.464)"></path><path d="M0 0H10.231V2.895H0z" fill="#fff" transform="translate(0 9.472)"></path></g></svg>