<?xml version="1.0" encoding="UTF-8" standalone="no"?>
<svg
   version="1.2"
   width="260.01999mm"
   height="42.23mm"
   viewBox="0 0 26001.999 4222.9998"
   preserveAspectRatio="xMidYMid"
   fill-rule="evenodd"
   stroke-width="28.222"
   stroke-linejoin="round"
   xml:space="preserve"
   id="svg304"
   sodipodi:docname="Hanbitmedia CI 2009_cs4 -.svg"
   inkscape:version="1.1.2 (0a00cf5339, 2022-02-04)"
   xmlns:inkscape="http://www.inkscape.org/namespaces/inkscape"
   xmlns:sodipodi="http://sodipodi.sourceforge.net/DTD/sodipodi-0.dtd"
   xmlns="http://www.w3.org/2000/svg"
   xmlns:svg="http://www.w3.org/2000/svg"
   xmlns:ooo="http://xml.openoffice.org/svg/export"><sodipodi:namedview
   id="namedview306"
   pagecolor="#ffffff"
   bordercolor="#666666"
   borderopacity="1.0"
   inkscape:pageshadow="2"
   inkscape:pageopacity="0.0"
   inkscape:pagecheckerboard="0"
   inkscape:document-units="mm"
   showgrid="false"
   fit-margin-top="0"
   fit-margin-left="0"
   fit-margin-right="0"
   fit-margin-bottom="0"
   inkscape:zoom="0.79378778"
   inkscape:cx="597.13693"
   inkscape:cy="231.79999"
   inkscape:window-width="1920"
   inkscape:window-height="1006"
   inkscape:window-x="0"
   inkscape:window-y="0"
   inkscape:window-maximized="1"
   inkscape:current-layer="svg304" />
 <defs
   class="ClipPathGroup"
   id="defs8">
  <clipPath
   id="presentation_clip_path"
   clipPathUnits="userSpaceOnUse">
   <rect
   x="0"
   y="0"
   width="29700"
   height="20999"
   id="rect2" />
  </clipPath>
  <clipPath
   id="presentation_clip_path_shrink"
   clipPathUnits="userSpaceOnUse">
   <rect
   x="29"
   y="20"
   width="29641"
   height="20958"
   id="rect5" />
  </clipPath>
 </defs>
 <defs
   class="TextShapeIndex"
   id="defs12">
  <g
   ooo:slide="id1"
   ooo:id-list="id3 id4 id5 id6 id7 id8 id9 id10 id11 id12 id13 id14 id15 id16 id17 id18 id19 id20 id21 id22 id23 id24 id25 id26 id27 id28 id29 id30 id31 id32 id33 id34 id35 id36 id37"
   id="g10" />
 </defs>
 <defs
   class="EmbeddedBulletChars"
   id="defs44">
  <g
   id="bullet-char-template-57356"
   transform="matrix(4.8828125e-4,0,0,-4.8828125e-4,0,0)">
   <path
   d="M 580,1141 1163,571 580,0 -4,571 Z"
   id="path14" />
  </g>
  <g
   id="bullet-char-template-57354"
   transform="matrix(4.8828125e-4,0,0,-4.8828125e-4,0,0)">
   <path
   d="M 8,1128 H 1137 V 0 H 8 Z"
   id="path17" />
  </g>
  <g
   id="bullet-char-template-10146"
   transform="matrix(4.8828125e-4,0,0,-4.8828125e-4,0,0)">
   <path
   d="M 174,0 602,739 174,1481 1456,739 Z M 1358,739 309,1346 659,739 Z"
   id="path20" />
  </g>
  <g
   id="bullet-char-template-10132"
   transform="matrix(4.8828125e-4,0,0,-4.8828125e-4,0,0)">
   <path
   d="M 2015,739 1276,0 H 717 l 543,543 H 174 v 393 h 1086 l -543,545 h 557 z"
   id="path23" />
  </g>
  <g
   id="bullet-char-template-10007"
   transform="matrix(4.8828125e-4,0,0,-4.8828125e-4,0,0)">
   <path
   d="m 0,-2 c -7,16 -16,29 -25,39 l 381,530 c -94,256 -141,385 -141,387 0,25 13,38 40,38 9,0 21,-2 34,-5 21,4 42,12 65,25 l 27,-13 111,-251 280,301 64,-25 24,25 c 21,-10 41,-24 62,-43 C 886,937 835,863 770,784 769,783 710,716 594,584 L 774,223 c 0,-27 -21,-55 -63,-84 l 16,-20 C 717,90 699,76 672,76 641,76 570,178 457,381 L 164,-76 c -22,-34 -53,-51 -92,-51 -42,0 -63,17 -64,51 -7,9 -10,24 -10,44 0,9 1,19 2,30 z"
   id="path26" />
  </g>
  <g
   id="bullet-char-template-10004"
   transform="matrix(4.8828125e-4,0,0,-4.8828125e-4,0,0)">
   <path
   d="M 285,-33 C 182,-33 111,30 74,156 52,228 41,333 41,471 c 0,78 14,145 41,201 34,71 87,106 158,106 53,0 88,-31 106,-94 l 23,-176 c 8,-64 28,-97 59,-98 l 735,706 c 11,11 33,17 66,17 42,0 63,-15 63,-46 V 965 c 0,-36 -10,-64 -30,-84 L 442,47 C 390,-6 338,-33 285,-33 Z"
   id="path29" />
  </g>
  <g
   id="bullet-char-template-9679"
   transform="matrix(4.8828125e-4,0,0,-4.8828125e-4,0,0)">
   <path
   d="M 813,0 C 632,0 489,54 383,161 276,268 223,411 223,592 c 0,181 53,324 160,431 106,107 249,161 430,161 179,0 323,-54 432,-161 108,-107 162,-251 162,-431 0,-180 -54,-324 -162,-431 C 1136,54 992,0 813,0 Z"
   id="path32" />
  </g>
  <g
   id="bullet-char-template-8226"
   transform="matrix(4.8828125e-4,0,0,-4.8828125e-4,0,0)">
   <path
   d="m 346,457 c -73,0 -137,26 -191,78 -54,51 -81,114 -81,188 0,73 27,136 81,188 54,52 118,78 191,78 73,0 134,-26 185,-79 51,-51 77,-114 77,-187 0,-75 -25,-137 -76,-188 -50,-52 -112,-78 -186,-78 z"
   id="path35" />
  </g>
  <g
   id="bullet-char-template-8211"
   transform="matrix(4.8828125e-4,0,0,-4.8828125e-4,0,0)">
   <path
   d="M -4,459 H 1135 V 606 H -4 Z"
   id="path38" />
  </g>
  <g
   id="bullet-char-template-61548"
   transform="matrix(4.8828125e-4,0,0,-4.8828125e-4,0,0)">
   <path
   d="m 173,740 c 0,163 58,303 173,419 116,115 255,173 419,173 163,0 302,-58 418,-173 116,-116 174,-256 174,-419 0,-163 -58,-303 -174,-418 C 1067,206 928,148 765,148 601,148 462,206 346,322 231,437 173,577 173,740 Z"
   id="path41" />
  </g>
 </defs>
 <g
   id="g49"
   transform="translate(-1960,-4359)">
  <g
   id="id2"
   class="Master_Slide">
   <g
   id="bg-id2"
   class="Background" />
   <g
   id="bo-id2"
   class="BackgroundObjects" />
  </g>
 </g>
 <g
   class="SlideGroup"
   id="g302"
   transform="translate(-1960,-4359)">
  <g
   id="g300">
   <g
   id="container-id1">
    <g
   id="id1"
   class="Slide"
   clip-path="url(#presentation_clip_path)">
     <g
   class="Page"
   id="g296">
      <g
   class="com.sun.star.drawing.PolyPolygonShape"
   id="g56">
       <g
   id="id3">
        <rect
   class="BoundingBox"
   stroke="none"
   fill="none"
   x="16774"
   y="7449"
   width="591"
   height="879"
   id="rect51" />
        <path
   fill="#231f20"
   stroke="none"
   d="m 16774,8327 v -877 h 132 v 353 h 326 v -353 h 132 v 877 h -132 v -389 h -326 v 389 z"
   id="path53" />
       </g>
      </g>
      <g
   class="com.sun.star.drawing.ClosedBezierShape"
   id="g63">
       <g
   id="id4">
        <rect
   class="BoundingBox"
   stroke="none"
   fill="none"
   x="17517"
   y="7641"
   width="666"
   height="700"
   id="rect58" />
        <path
   fill="#231f20"
   stroke="none"
   d="m 17997,7834 c -39,-44 -88,-66 -145,-66 -57,0 -106,22 -145,66 -40,39 -62,96 -62,157 0,65 22,118 62,161 39,44 88,66 149,66 53,0 102,-22 141,-66 40,-43 62,-91 62,-152 0,-62 -22,-123 -62,-166 z m -387,406 c -61,-66 -92,-149 -92,-245 0,-48 9,-91 22,-139 17,-40 39,-79 70,-114 31,-30 66,-57 106,-74 35,-18 79,-26 127,-26 35,0 71,8 101,22 31,13 71,34 110,65 v -65 h 128 v 663 h -128 v -70 c -39,31 -74,52 -110,66 -30,13 -61,17 -92,17 -97,0 -176,-31 -242,-100 z"
   id="path60" />
       </g>
      </g>
      <g
   class="com.sun.star.drawing.ClosedBezierShape"
   id="g70">
       <g
   id="id5">
        <rect
   class="BoundingBox"
   stroke="none"
   fill="none"
   x="18357"
   y="7650"
   width="548"
   height="678"
   id="rect65" />
        <path
   fill="#231f20"
   stroke="none"
   d="m 18358,8327 v -663 h 119 v 61 c 30,-31 61,-53 88,-61 22,-9 48,-14 79,-14 83,0 145,27 193,75 44,52 66,131 66,227 v 375 h -123 v -349 c 0,-70 -13,-118 -35,-153 -26,-35 -62,-52 -110,-52 -57,0 -97,21 -123,61 -22,43 -31,104 -31,192 v 301 z"
   id="path67" />
       </g>
      </g>
      <g
   class="com.sun.star.drawing.ClosedBezierShape"
   id="g77">
       <g
   id="id6">
        <rect
   class="BoundingBox"
   stroke="none"
   fill="none"
   x="19039"
   y="7449"
   width="671"
   height="897"
   id="rect72" />
        <path
   fill="#231f20"
   stroke="none"
   d="m 19224,8152 c 40,44 88,66 141,66 62,0 110,-22 154,-66 40,-39 62,-96 62,-157 0,-65 -22,-122 -62,-161 -44,-44 -92,-61 -154,-61 -53,0 -101,17 -141,61 -44,43 -61,104 -61,166 0,61 22,113 61,152 z m 49,171 c -31,-14 -66,-35 -106,-66 v 70 h -127 v -877 h 123 v 279 c 39,-31 79,-52 114,-65 31,-14 62,-22 101,-22 49,0 93,8 132,26 36,17 71,44 106,78 26,31 53,70 66,110 17,43 26,91 26,139 0,96 -31,179 -97,245 -61,69 -140,104 -241,104 -31,0 -66,-8 -97,-21 z"
   id="path74" />
       </g>
      </g>
      <g
   class="com.sun.star.drawing.PolyPolygonShape"
   id="g84">
       <g
   id="id7">
        <rect
   class="BoundingBox"
   stroke="none"
   fill="none"
   x="19862"
   y="7449"
   width="125"
   height="879"
   id="rect79" />
        <path
   fill="#231f20"
   stroke="none"
   d="m 19862,7450 h 123 v 126 h -123 z m 0,218 h 123 v 659 h -123 z"
   id="path81" />
       </g>
      </g>
      <g
   class="com.sun.star.drawing.PolyPolygonShape"
   id="g91">
       <g
   id="id8">
        <rect
   class="BoundingBox"
   stroke="none"
   fill="none"
   x="20156"
   y="7449"
   width="306"
   height="879"
   id="rect86" />
        <path
   fill="#231f20"
   stroke="none"
   d="m 20245,7786 h -88 v -118 h 88 v -218 h 127 v 218 h 88 v 118 h -88 v 541 h -127 z"
   id="path88" />
       </g>
      </g>
      <g
   class="com.sun.star.drawing.PolyPolygonShape"
   id="g98">
       <g
   id="id9">
        <rect
   class="BoundingBox"
   stroke="none"
   fill="none"
   x="21098"
   y="7449"
   width="846"
   height="879"
   id="rect93" />
        <path
   fill="#231f20"
   stroke="none"
   d="m 21098,8327 v -877 h 185 l 237,663 238,-663 h 185 v 877 h -123 v -703 l -256,703 h -92 l -251,-698 v 698 z"
   id="path95" />
       </g>
      </g>
      <g
   class="com.sun.star.drawing.ClosedBezierShape"
   id="g105">
       <g
   id="id10">
        <rect
   class="BoundingBox"
   stroke="none"
   fill="none"
   x="22092"
   y="7641"
   width="666"
   height="705"
   id="rect100" />
        <path
   fill="#231f20"
   stroke="none"
   d="m 22308,7808 c -31,26 -57,65 -79,117 h 391 c -17,-52 -44,-96 -79,-117 -31,-27 -66,-40 -110,-40 -48,0 -88,13 -123,40 z m -88,240 c 17,52 44,96 83,126 36,31 75,44 128,44 35,0 66,-9 97,-26 26,-18 53,-40 70,-66 h 141 c -31,70 -75,122 -128,162 -52,39 -114,56 -180,56 -53,0 -97,-8 -136,-26 -40,-17 -75,-43 -106,-74 -31,-35 -53,-74 -70,-118 -18,-43 -27,-87 -27,-135 0,-44 9,-92 22,-131 18,-39 40,-79 71,-114 30,-34 66,-61 105,-78 40,-18 84,-26 132,-26 57,0 110,13 159,39 48,26 88,65 123,113 17,31 30,66 39,101 9,35 13,78 13,122 v 31 z"
   id="path102" />
       </g>
      </g>
      <g
   class="com.sun.star.drawing.ClosedBezierShape"
   id="g112">
       <g
   id="id11">
        <rect
   class="BoundingBox"
   stroke="none"
   fill="none"
   x="22888"
   y="7449"
   width="666"
   height="897"
   id="rect107" />
        <path
   fill="#231f20"
   stroke="none"
   d="m 23372,7834 c -44,-44 -92,-61 -145,-61 -57,0 -110,17 -149,61 -40,39 -62,96 -62,161 0,61 22,118 62,157 39,44 92,66 149,66 53,0 101,-22 145,-66 44,-43 62,-91 62,-152 0,-62 -18,-123 -62,-166 z m -387,406 c -66,-66 -97,-149 -97,-245 0,-48 9,-96 27,-139 13,-40 35,-79 66,-110 31,-34 66,-61 105,-78 40,-18 80,-26 128,-26 35,0 70,8 101,22 35,13 75,34 114,65 v -279 h 124 v 877 h -124 v -70 c -39,31 -79,52 -114,66 -31,13 -61,21 -92,21 -97,0 -176,-35 -238,-104 z"
   id="path109" />
       </g>
      </g>
      <g
   class="com.sun.star.drawing.PolyPolygonShape"
   id="g119">
       <g
   id="id12">
        <rect
   class="BoundingBox"
   stroke="none"
   fill="none"
   x="23728"
   y="7449"
   width="130"
   height="879"
   id="rect114" />
        <path
   fill="#231f20"
   stroke="none"
   d="m 23729,7450 h 127 v 126 h -127 z m 0,218 h 127 v 659 h -127 z"
   id="path116" />
       </g>
      </g>
      <g
   class="com.sun.star.drawing.ClosedBezierShape"
   id="g126">
       <g
   id="id13">
        <rect
   class="BoundingBox"
   stroke="none"
   fill="none"
   x="24005"
   y="7641"
   width="666"
   height="700"
   id="rect121" />
        <path
   fill="#231f20"
   stroke="none"
   d="m 24490,7834 c -40,-44 -88,-66 -141,-66 -57,0 -106,22 -150,66 -39,39 -61,96 -61,157 0,65 22,118 61,161 40,44 93,66 150,66 53,0 101,-22 141,-66 44,-43 61,-91 61,-152 0,-62 -17,-123 -61,-166 z m -383,406 c -66,-66 -101,-149 -101,-245 0,-48 13,-91 30,-139 14,-40 36,-79 66,-114 31,-30 66,-57 106,-74 40,-18 84,-26 128,-26 35,0 70,8 101,22 35,13 70,34 114,65 v -65 h 119 v 663 h -123 v -70 c -40,31 -75,52 -110,66 -31,13 -62,17 -93,17 -96,0 -176,-31 -237,-100 z"
   id="path123" />
       </g>
      </g>
      <g
   class="com.sun.star.drawing.ClosedBezierShape"
   id="g133">
       <g
   id="id14">
        <rect
   class="BoundingBox"
   stroke="none"
   fill="none"
   x="24845"
   y="8174"
   width="125"
   height="307"
   id="rect128" />
        <path
   fill="#231f20"
   stroke="none"
   d="m 24846,8392 c 13,-4 22,-8 31,-13 4,-13 13,-30 13,-56 h -44 v -149 h 123 v 131 c 0,52 -9,92 -26,118 -22,26 -53,48 -97,57 z"
   id="path130" />
       </g>
      </g>
      <g
   class="com.sun.star.drawing.PolyPolygonShape"
   id="g140">
       <g
   id="id15">
        <rect
   class="BoundingBox"
   stroke="none"
   fill="none"
   x="25527"
   y="7449"
   width="134"
   height="879"
   id="rect135" />
        <path
   fill="#231f20"
   stroke="none"
   d="m 25528,7450 h 132 v 877 h -132 z"
   id="path137" />
       </g>
      </g>
      <g
   class="com.sun.star.drawing.ClosedBezierShape"
   id="g147">
       <g
   id="id16">
        <rect
   class="BoundingBox"
   stroke="none"
   fill="none"
   x="25835"
   y="7650"
   width="552"
   height="678"
   id="rect142" />
        <path
   fill="#231f20"
   stroke="none"
   d="m 25835,8327 v -663 h 124 v 61 c 35,-31 61,-53 88,-61 26,-9 52,-14 83,-14 79,0 141,27 185,75 48,52 70,131 70,227 v 375 h -123 v -349 c 0,-70 -13,-118 -35,-153 -22,-35 -62,-52 -110,-52 -57,0 -97,21 -119,61 -26,43 -35,104 -35,192 v 301 z"
   id="path144" />
       </g>
      </g>
      <g
   class="com.sun.star.drawing.ClosedBezierShape"
   id="g154">
       <g
   id="id17">
        <rect
   class="BoundingBox"
   stroke="none"
   fill="none"
   x="26539"
   y="7641"
   width="644"
   height="705"
   id="rect149" />
        <path
   fill="#231f20"
   stroke="none"
   d="m 27063,8283 c -57,40 -123,61 -198,61 -44,0 -88,-8 -128,-26 -39,-17 -75,-39 -101,-74 -31,-31 -57,-70 -70,-113 -18,-44 -27,-88 -27,-136 0,-48 9,-91 22,-131 18,-39 40,-78 66,-113 35,-35 71,-61 115,-83 44,-18 92,-26 140,-26 71,0 128,22 185,61 48,43 88,105 114,187 h -132 c -17,-39 -48,-69 -79,-91 -30,-18 -66,-26 -110,-26 -52,0 -101,21 -136,61 -40,43 -57,96 -57,157 0,70 17,122 57,166 40,39 84,61 141,61 39,0 75,-9 105,-31 31,-22 62,-52 79,-91 h 132 c -26,83 -66,144 -118,187 z"
   id="path151" />
       </g>
      </g>
      <g
   class="com.sun.star.drawing.PolyPolygonShape"
   id="g161">
       <g
   id="id18">
        <rect
   class="BoundingBox"
   stroke="none"
   fill="none"
   x="27361"
   y="8165"
   width="130"
   height="163"
   id="rect156" />
        <path
   fill="#231f20"
   stroke="none"
   d="m 27362,8165 h 127 v 162 h -127 z"
   id="path158" />
       </g>
      </g>
      <g
   class="com.sun.star.drawing.ClosedBezierShape"
   id="g168">
       <g
   id="id19">
        <rect
   class="BoundingBox"
   stroke="none"
   fill="none"
   x="10387"
   y="4639"
   width="1005"
   height="2616"
   id="rect163" />
        <path
   fill="#231f20"
   stroke="none"
   d="m 10392,5185 -4,2068 567,-4 V 5189 h 436 v -550 h -449 c -581,0 -550,546 -550,546 z"
   id="path165" />
       </g>
      </g>
      <g
   class="com.sun.star.drawing.ClosedBezierShape"
   id="g175">
       <g
   id="id20">
        <rect
   class="BoundingBox"
   stroke="none"
   fill="none"
   x="7792"
   y="7183"
   width="3178"
   height="1212"
   id="rect170" />
        <path
   fill="#231f20"
   stroke="none"
   d="m 8342,7184 h -549 v 641 c 0,615 514,567 514,567 h 2661 V 7869 H 8342 Z"
   id="path172" />
       </g>
      </g>
      <g
   class="com.sun.star.drawing.ClosedBezierShape"
   id="g182">
       <g
   id="id21">
        <rect
   class="BoundingBox"
   stroke="none"
   fill="none"
   x="7532"
   y="4359"
   width="2540"
   height="2691"
   id="rect177" />
        <path
   fill="#231f20"
   stroke="none"
   d="m 8791,6546 c -330,0 -598,-235 -598,-528 0,-292 268,-532 598,-532 330,0 603,240 603,532 0,293 -273,528 -603,528 z M 7625,6010 c 0,571 524,1038 1170,1038 651,0 1175,-467 1175,-1038 0,-336 -181,-642 -458,-830 h 559 v -519 h -906 v -301 h -739 v 301 h -893 v 519 h 550 c -277,188 -458,494 -458,830 z"
   id="path179" />
       </g>
      </g>
      <g
   class="com.sun.star.drawing.ClosedBezierShape"
   id="g189">
       <g
   id="id22">
        <rect
   class="BoundingBox"
   stroke="none"
   fill="none"
   x="16075"
   y="4674"
   width="2447"
   height="2214"
   id="rect184" />
        <path
   fill="#231f20"
   stroke="none"
   d="m 16642,5180 h 1320 v 1183 h -1320 z m -567,-327 v 1497 c 0,563 515,537 515,537 h 1926 v -354 h 5 V 5180 4892 4674 h -2446 z"
   id="path186" />
       </g>
      </g>
      <g
   class="com.sun.star.drawing.PolyPolygonShape"
   id="g196">
       <g
   id="id23">
        <rect
   class="BoundingBox"
   stroke="none"
   fill="none"
   x="19013"
   y="4639"
   width="560"
   height="2446"
   id="rect191" />
        <path
   fill="#231f20"
   stroke="none"
   d="m 19013,7083 h 559 V 4639 h -559 z"
   id="path193" />
       </g>
      </g>
      <g
   class="com.sun.star.drawing.ClosedBezierShape"
   id="g203">
       <g
   id="id24">
        <rect
   class="BoundingBox"
   stroke="none"
   fill="none"
   x="20280"
   y="4674"
   width="2421"
   height="2214"
   id="rect198" />
        <path
   fill="#231f20"
   stroke="none"
   d="m 20284,4853 h -4 v 1497 c 0,563 519,537 519,537 h 1900 V 6363 H 20852 V 5180 h 1847 v -506 h -2415 z"
   id="path200" />
       </g>
      </g>
      <g
   class="com.sun.star.drawing.PolyPolygonShape"
   id="g210">
       <g
   id="id25">
        <rect
   class="BoundingBox"
   stroke="none"
   fill="none"
   x="23139"
   y="4639"
   width="560"
   height="2446"
   id="rect205" />
        <path
   fill="#231f20"
   stroke="none"
   d="m 23139,7083 h 559 V 4639 h -559 z"
   id="path207" />
       </g>
      </g>
      <g
   class="com.sun.star.drawing.ClosedBezierShape"
   id="g217">
       <g
   id="id26">
        <rect
   class="BoundingBox"
   stroke="none"
   fill="none"
   x="11900"
   y="4665"
   width="2553"
   height="2036"
   id="rect212" />
        <path
   fill="#231f20"
   stroke="none"
   d="m 12473,5665 h 1420 v 506 h -1420 z m -53,1034 h 2032 V 6302 4665 h -559 v 494 h -1420 v -494 h -572 v 1493 c 0,572 519,541 519,541 z"
   id="path214" />
       </g>
      </g>
      <g
   class="com.sun.star.drawing.PolyPolygonShape"
   id="g224">
       <g
   id="id27">
        <rect
   class="BoundingBox"
   stroke="none"
   fill="none"
   x="14795"
   y="4639"
   width="565"
   height="2241"
   id="rect219" />
        <path
   fill="#231f20"
   stroke="none"
   d="m 15358,4639 h -563 v 2239 h 563 z"
   id="path221" />
       </g>
      </g>
      <g
   class="com.sun.star.drawing.ClosedBezierShape"
   id="g231">
       <g
   id="id28">
        <rect
   class="BoundingBox"
   stroke="none"
   fill="none"
   x="12015"
   y="6856"
   width="3525"
   height="1726"
   id="rect226" />
        <path
   fill="#231f20"
   stroke="none"
   d="m 15349,7677 v -524 h -1201 v -297 h -743 v 297 h -1196 v 524 h 923 c -242,174 -673,432 -1117,519 l 554,384 c 0,0 471,17 1206,-655 h 4 c 730,672 1201,655 1201,655 l 558,-384 c -448,-87 -879,-345 -1121,-519 z"
   id="path228" />
       </g>
      </g>
      <g
   class="com.sun.star.drawing.ClosedBezierShape"
   id="g238">
       <g
   id="id29">
        <rect
   class="BoundingBox"
   stroke="none"
   fill="none"
   x="24322"
   y="4595"
   width="2593"
   height="2444"
   id="rect233" />
        <path
   fill="#231f20"
   stroke="none"
   d="m 25624,6478 c -356,0 -642,-296 -642,-672 0,-366 286,-667 642,-667 352,0 638,301 638,667 0,376 -286,672 -638,672 z m 84,-1880 c -26,0 -53,0 -75,0 -26,-5 -48,0 -75,0 -681,8 -1231,545 -1236,1208 -4,672 550,1222 1241,1231 17,0 35,0 48,0 18,0 31,0 44,0 5,0 5,0 9,0 4,0 9,0 13,0 682,-13 1227,-545 1236,-1213 5,-659 -532,-1200 -1205,-1226 z"
   id="path235" />
       </g>
      </g>
      <g
   class="com.sun.star.drawing.ClosedBezierShape"
   id="g245">
       <g
   id="id30">
        <rect
   class="BoundingBox"
   stroke="none"
   fill="none"
   x="26957"
   y="4639"
   width="1005"
   height="2446"
   id="rect240" />
        <path
   fill="#231f20"
   stroke="none"
   d="m 27397,7083 h 563 V 5180 c 0,0 31,-541 -550,-541 h -453 v 546 h 440 z"
   id="path242" />
       </g>
      </g>
      <g
   class="com.sun.star.drawing.ClosedBezierShape"
   id="g252">
       <g
   id="id31">
        <rect
   class="BoundingBox"
   stroke="none"
   fill="none"
   x="4304"
   y="6638"
   width="1907"
   height="1721"
   id="rect247" />
        <path
   fill="#40b93c"
   stroke="none"
   d="m 5611,6638 c 334,9 598,393 598,860 0,475 -268,859 -607,859 H 4304 c 234,-48 458,-414 458,-859 0,-441 -224,-812 -458,-860 z"
   id="path249" />
       </g>
      </g>
      <g
   class="com.sun.star.drawing.ClosedBezierShape"
   id="g259">
       <g
   id="id32">
        <rect
   class="BoundingBox"
   stroke="none"
   fill="none"
   x="4304"
   y="4656"
   width="1907"
   height="1722"
   id="rect254" />
        <path
   fill="#f1452a"
   stroke="none"
   d="m 5611,4661 v -4 4 c 334,4 598,389 598,860 0,471 -268,855 -607,855 H 4304 c 234,-48 458,-414 458,-855 0,-445 -224,-816 -458,-864 h 1307 z"
   id="path256" />
       </g>
      </g>
      <g
   class="com.sun.star.drawing.PolyPolygonShape"
   id="g266">
       <g
   id="id33">
        <rect
   class="BoundingBox"
   stroke="none"
   fill="none"
   x="2866"
   y="4997"
   width="2"
   height="2"
   id="rect261" />
        <path
   fill="#40b93c"
   stroke="none"
   d="M 2866,4997 Z"
   id="path263" />
       </g>
      </g>
      <g
   class="com.sun.star.drawing.PolyPolygonShape"
   id="g273">
       <g
   id="id34">
        <rect
   class="BoundingBox"
   stroke="none"
   fill="none"
   x="3187"
   y="4997"
   width="2"
   height="2"
   id="rect268" />
        <path
   fill="#40b93c"
   stroke="none"
   d="M 3187,4997 Z"
   id="path270" />
       </g>
      </g>
      <g
   class="com.sun.star.drawing.ClosedBezierShape"
   id="g280">
       <g
   id="id35">
        <rect
   class="BoundingBox"
   stroke="none"
   fill="none"
   x="3187"
   y="4573"
   width="908"
   height="3795"
   id="rect275" />
        <path
   fill="#40b93c"
   stroke="none"
   d="m 3187,4997 c 0,-231 203,-423 453,-423 247,0 453,192 453,423 V 8366 H 3187 V 6865 c 141,-61 242,-205 242,-367 0,-161 -101,-301 -242,-366 z"
   id="path277" />
       </g>
      </g>
      <g
   class="com.sun.star.drawing.ClosedBezierShape"
   id="g287">
       <g
   id="id36">
        <rect
   class="BoundingBox"
   stroke="none"
   fill="none"
   x="1960"
   y="4573"
   width="912"
   height="3795"
   id="rect282" />
        <path
   fill="#40b93c"
   stroke="none"
   d="m 2871,4997 v 1135 c -146,65 -242,205 -242,366 0,162 96,306 242,367 V 8366 H 1960 V 4997 c 0,-231 202,-423 457,-423 251,0 454,192 454,423 z"
   id="path284" />
       </g>
      </g>
      <g
   class="com.sun.star.drawing.ClosedBezierShape"
   id="g294">
       <g
   id="id37">
        <rect
   class="BoundingBox"
   stroke="none"
   fill="none"
   x="2624"
   y="6096"
   width="811"
   height="805"
   id="rect289" />
        <path
   fill="#f1452a"
   stroke="none"
   d="m 3434,6498 c 0,223 -181,402 -405,402 -224,0 -405,-179 -405,-402 0,-222 181,-401 405,-401 224,0 405,179 405,401 z"
   id="path291" />
       </g>
      </g>
     </g>
    </g>
   </g>
  </g>
 </g>
</svg>
