<?xml version="1.0" encoding="UTF-8"?>
<!DOCTYPE svg PUBLIC "-//W3C//DTD SVG 1.1//EN" "http://www.w3.org/Graphics/SVG/1.1/DTD/svg11.dtd">
<svg version="1.2" width="100mm" height="40mm" viewBox="0 0 10000 4000" preserveAspectRatio="xMidYMid" fill-rule="evenodd" stroke-width="28.222" stroke-linejoin="round" xmlns="http://www.w3.org/2000/svg" xmlns:ooo="http://xml.openoffice.org/svg/export" xmlns:xlink="http://www.w3.org/1999/xlink" xmlns:presentation="http://sun.com/xmlns/staroffice/presentation" xmlns:smil="http://www.w3.org/2001/SMIL20/" xmlns:anim="urn:oasis:names:tc:opendocument:xmlns:animation:1.0" xml:space="preserve">
 <defs class="ClipPathGroup">
  <clipPath id="presentation_clip_path" clipPathUnits="userSpaceOnUse">
   <rect x="0" y="0" width="10000" height="4000"/>
  </clipPath>
  <clipPath id="presentation_clip_path_shrink" clipPathUnits="userSpaceOnUse">
   <rect x="10" y="4" width="9980" height="3992"/>
  </clipPath>
 </defs>
 <defs class="TextShapeIndex">
  <g ooo:slide="id1" ooo:id-list="id3 id4 id5 id6 id7"/>
 </defs>
 <defs class="EmbeddedBulletChars">
  <g id="bullet-char-template-57356" transform="scale(0.00048828125,-0.00048828125)">
   <path d="M 580,1141 L 1163,571 580,0 -4,571 580,1141 Z"/>
  </g>
  <g id="bullet-char-template-57354" transform="scale(0.00048828125,-0.00048828125)">
   <path d="M 8,1128 L 1137,1128 1137,0 8,0 8,1128 Z"/>
  </g>
  <g id="bullet-char-template-10146" transform="scale(0.00048828125,-0.00048828125)">
   <path d="M 174,0 L 602,739 174,1481 1456,739 174,0 Z M 1358,739 L 309,1346 659,739 1358,739 Z"/>
  </g>
  <g id="bullet-char-template-10132" transform="scale(0.00048828125,-0.00048828125)">
   <path d="M 2015,739 L 1276,0 717,0 1260,543 174,543 174,936 1260,936 717,1481 1274,1481 2015,739 Z"/>
  </g>
  <g id="bullet-char-template-10007" transform="scale(0.00048828125,-0.00048828125)">
   <path d="M 0,-2 C -7,14 -16,27 -25,37 L 356,567 C 262,823 215,952 215,954 215,979 228,992 255,992 264,992 276,990 289,987 310,991 331,999 354,1012 L 381,999 492,748 772,1049 836,1024 860,1049 C 881,1039 901,1025 922,1006 886,937 835,863 770,784 769,783 710,716 594,584 L 774,223 C 774,196 753,168 711,139 L 727,119 C 717,90 699,76 672,76 641,76 570,178 457,381 L 164,-76 C 142,-110 111,-127 72,-127 30,-127 9,-110 8,-76 1,-67 -2,-52 -2,-32 -2,-23 -1,-13 0,-2 Z"/>
  </g>
  <g id="bullet-char-template-10004" transform="scale(0.00048828125,-0.00048828125)">
   <path d="M 285,-33 C 182,-33 111,30 74,156 52,228 41,333 41,471 41,549 55,616 82,672 116,743 169,778 240,778 293,778 328,747 346,684 L 369,508 C 377,444 397,411 428,410 L 1163,1116 C 1174,1127 1196,1133 1229,1133 1271,1133 1292,1118 1292,1087 L 1292,965 C 1292,929 1282,901 1262,881 L 442,47 C 390,-6 338,-33 285,-33 Z"/>
  </g>
  <g id="bullet-char-template-9679" transform="scale(0.00048828125,-0.00048828125)">
   <path d="M 813,0 C 632,0 489,54 383,161 276,268 223,411 223,592 223,773 276,916 383,1023 489,1130 632,1184 813,1184 992,1184 1136,1130 1245,1023 1353,916 1407,772 1407,592 1407,412 1353,268 1245,161 1136,54 992,0 813,0 Z"/>
  </g>
  <g id="bullet-char-template-8226" transform="scale(0.00048828125,-0.00048828125)">
   <path d="M 346,457 C 273,457 209,483 155,535 101,586 74,649 74,723 74,796 101,859 155,911 209,963 273,989 346,989 419,989 480,963 531,910 582,859 608,796 608,723 608,648 583,586 532,535 482,483 420,457 346,457 Z"/>
  </g>
  <g id="bullet-char-template-8211" transform="scale(0.00048828125,-0.00048828125)">
   <path d="M -4,459 L 1135,459 1135,606 -4,606 -4,459 Z"/>
  </g>
  <g id="bullet-char-template-61548" transform="scale(0.00048828125,-0.00048828125)">
   <path d="M 173,740 C 173,903 231,1043 346,1159 462,1274 601,1332 765,1332 928,1332 1067,1274 1183,1159 1299,1043 1357,903 1357,740 1357,577 1299,437 1183,322 1067,206 928,148 765,148 601,148 462,206 346,322 231,437 173,577 173,740 Z"/>
  </g>
 </defs>
 <g>
  <g id="id2" class="Master_Slide">
   <g id="bg-id2" class="Background"/>
   <g id="bo-id2" class="BackgroundObjects"/>
  </g>
 </g>
 <g class="SlideGroup">
  <g>
   <g id="container-id1">
    <g id="id1" class="Slide" clip-path="url(#presentation_clip_path)">
     <g class="Page">
      <g class="com.sun.star.drawing.ClosedBezierShape">
       <g id="id3">
        <rect class="BoundingBox" stroke="none" fill="none" x="5999" y="638" width="54" height="53"/>
        <path fill="rgb(8,86,147)" stroke="none" d="M 5999,638 C 6016,654 6033,671 6051,690 6025,660 6008,645 5999,638 Z"/>
       </g>
      </g>
      <g class="com.sun.star.drawing.ClosedBezierShape">
       <g id="id4">
        <rect class="BoundingBox" stroke="none" fill="none" x="6204" y="902" width="86" height="142"/>
        <path fill="rgb(8,86,147)" stroke="none" d="M 6289,1043 C 6258,990 6230,943 6204,902 6228,942 6256,989 6289,1043 Z"/>
       </g>
      </g>
      <g class="com.sun.star.drawing.ClosedBezierShape">
       <g id="id5">
        <rect class="BoundingBox" stroke="none" fill="none" x="500" y="321" width="9002" height="3359"/>
        <path fill="rgb(8,86,147)" stroke="none" d="M 2122,3146 C 1491,3146 978,2632 978,2001 978,1369 1491,856 2122,856 2753,856 3267,1369 3267,2001 3267,2632 2753,3146 2122,3146 Z M 9474,2863 L 9251,2641 C 9182,2591 9135,2653 9134,2654 8920,2961 8569,3145 8195,3145 7564,3145 7050,2632 7050,2001 7050,1368 7564,855 8195,855 8570,855 8921,1039 9136,1348 9137,1349 9158,1375 9191,1379 9212,1381 9233,1374 9254,1357 L 9473,1137 C 9530,1077 9479,1008 9478,1007 9168,606 8700,377 8195,377 7451,377 6806,878 6623,1597 6502,1396 6380,1193 6289,1042 6257,988 6229,941 6205,902 6137,794 6086,728 6051,689 6034,671 6017,654 6000,638 5995,634 5993,632 5993,632 5993,632 5994,633 5997,635 5870,517 5724,431 5563,380 5441,341 5309,321 5170,321 L 5153,321 C 4801,321 4520,445 4318,689 4178,860 4102,1073 4103,1288 4109,1995 4688,2120 5110,2212 L 5130,2216 C 5491,2291 5802,2356 5795,2694 5790,2876 5710,3006 5552,3093 5390,3181 5212,3189 5161,3190 L 5152,3190 C 4894,3190 4680,3070 4514,2835 4483,2793 4455,2747 4430,2699 L 4422,2685 3702,1487 3518,1173 C 3517,1170 3515,1168 3514,1165 3512,1162 3510,1159 3508,1156 L 3505,1150 3504,1150 C 3362,919 3163,726 2928,591 2684,451 2405,378 2122,378 1227,378 500,1106 500,2002 500,2896 1227,3624 2122,3624 2860,3624 3504,3128 3691,2417 L 4097,3080 4139,3148 C 4140,3150 4142,3153 4144,3155 L 4146,3158 C 4149,3163 4153,3168 4156,3171 4193,3223 4233,3272 4276,3315 4508,3549 4829,3679 5179,3679 6063,3679 6271,2984 6277,2717 6302,1954 5681,1818 5269,1728 L 5199,1713 5170,1706 C 4884,1640 4589,1572 4582,1275 4580,1190 4603,1112 4654,1036 4754,886 4940,797 5151,797 L 5156,796 C 5169,796 5194,797 5228,801 5234,802 5240,802 5246,803 5264,806 5284,809 5306,813 5307,814 5308,814 5309,814 5315,816 5321,817 5327,818 5328,819 5330,819 5332,820 5338,821 5344,822 5349,824 5351,824 5353,825 5355,825 5370,829 5385,834 5401,839 5403,840 5405,841 5407,841 5413,843 5419,845 5426,848 5428,849 5431,850 5433,850 5439,853 5445,855 5451,857 5453,858 5456,859 5459,860 5465,863 5472,866 5479,869 5481,870 5482,870 5484,871 5493,875 5501,879 5510,883 5511,884 5513,884 5514,885 5521,889 5529,892 5536,896 5539,898 5541,899 5544,900 5550,904 5556,907 5563,911 5566,912 5568,914 5571,916 5578,920 5584,923 5591,927 5593,929 5595,930 5598,932 5607,938 5616,943 5624,949 5681,996 5733,1052 5780,1120 5807,1158 5832,1199 5855,1242 L 5862,1255 6056,1577 C 6321,2022 6653,2573 6729,2698 6859,2971 7063,3202 7317,3366 7579,3534 7882,3623 8195,3623 8704,3623 9174,3391 9484,2985 9485,2985 9527,2922 9474,2863 Z"/>
       </g>
      </g>
      <g class="com.sun.star.drawing.PolyPolygonShape">
       <g id="id6">
        <rect class="BoundingBox" stroke="none" fill="none" x="6288" y="1042" width="1" height="1"/>
        <path fill="rgb(8,86,147)" stroke="none" d="M 6288,1042 L 6288,1042 Z"/>
       </g>
      </g>
      <g class="com.sun.star.drawing.ClosedBezierShape">
       <g id="id7">
        <rect class="BoundingBox" stroke="none" fill="none" x="5992" y="632" width="9" height="9"/>
        <path fill="rgb(8,86,147)" stroke="none" d="M 6000,640 C 5999,638 5998,637 5997,636 5993,634 5992,632 5992,632 5992,632 5994,635 6000,640 Z"/>
       </g>
      </g>
     </g>
    </g>
   </g>
  </g>
 </g>
</svg>